<mxfile host="app.diagrams.net" agent="Mozilla/5.0 (Windows NT 10.0; Win64; x64) AppleWebKit/537.36 (KHTML, like Gecko) Chrome/134.0.0.0 Safari/537.36" version="26.1.1">
  <diagram name="페이지-1" id="1WgKgNyMDOATbRARVt72">
    <mxGraphModel dx="381" dy="398" grid="1" gridSize="10" guides="1" tooltips="1" connect="1" arrows="1" fold="1" page="1" pageScale="1" pageWidth="827" pageHeight="1169" math="0" shadow="0">
      <root>
        <mxCell id="0" />
        <mxCell id="1" parent="0" />
        <mxCell id="uE81RZDB7KeKk8YCKidy-75" value="" style="rounded=0;whiteSpace=wrap;html=1;strokeColor=none;" vertex="1" parent="1">
          <mxGeometry x="270" y="640" width="320" height="70" as="geometry" />
        </mxCell>
        <mxCell id="uE81RZDB7KeKk8YCKidy-29" value="" style="rounded=0;whiteSpace=wrap;html=1;strokeColor=none;" vertex="1" parent="1">
          <mxGeometry x="250" y="350" width="400" height="240" as="geometry" />
        </mxCell>
        <mxCell id="uE81RZDB7KeKk8YCKidy-2" value="1" style="rounded=0;whiteSpace=wrap;html=1;fillColor=#dae8fc;strokeColor=#6c8ebf;" vertex="1" parent="1">
          <mxGeometry x="350" y="440" width="50" height="80" as="geometry" />
        </mxCell>
        <mxCell id="uE81RZDB7KeKk8YCKidy-4" value="2" style="ellipse;whiteSpace=wrap;html=1;aspect=fixed;fillColor=#fff2cc;strokeColor=#d6b656;" vertex="1" parent="1">
          <mxGeometry x="420" y="525" width="40" height="40" as="geometry" />
        </mxCell>
        <mxCell id="uE81RZDB7KeKk8YCKidy-8" value="3" style="ellipse;whiteSpace=wrap;html=1;aspect=fixed;" vertex="1" parent="1">
          <mxGeometry x="500" y="525" width="40" height="40" as="geometry" />
        </mxCell>
        <mxCell id="uE81RZDB7KeKk8YCKidy-9" value="4" style="ellipse;whiteSpace=wrap;html=1;aspect=fixed;fillColor=#fff2cc;strokeColor=#d6b656;" vertex="1" parent="1">
          <mxGeometry x="260" y="500" width="40" height="40" as="geometry" />
        </mxCell>
        <mxCell id="uE81RZDB7KeKk8YCKidy-10" value="5" style="ellipse;whiteSpace=wrap;html=1;aspect=fixed;fillColor=#fff2cc;strokeColor=#d6b656;" vertex="1" parent="1">
          <mxGeometry x="460" y="410" width="40" height="40" as="geometry" />
        </mxCell>
        <mxCell id="uE81RZDB7KeKk8YCKidy-11" value="6" style="ellipse;whiteSpace=wrap;html=1;aspect=fixed;fillColor=#fff2cc;strokeColor=#d6b656;" vertex="1" parent="1">
          <mxGeometry x="270" y="390" width="40" height="40" as="geometry" />
        </mxCell>
        <mxCell id="uE81RZDB7KeKk8YCKidy-12" value="7" style="ellipse;whiteSpace=wrap;html=1;aspect=fixed;" vertex="1" parent="1">
          <mxGeometry x="355" y="360" width="40" height="40" as="geometry" />
        </mxCell>
        <mxCell id="uE81RZDB7KeKk8YCKidy-14" value="" style="endArrow=none;html=1;rounded=0;" edge="1" parent="1" source="uE81RZDB7KeKk8YCKidy-11" target="uE81RZDB7KeKk8YCKidy-12">
          <mxGeometry width="50" height="50" relative="1" as="geometry">
            <mxPoint x="390" y="530" as="sourcePoint" />
            <mxPoint x="440" y="480" as="targetPoint" />
          </mxGeometry>
        </mxCell>
        <mxCell id="uE81RZDB7KeKk8YCKidy-20" value="5" style="edgeLabel;html=1;align=center;verticalAlign=middle;resizable=0;points=[];" vertex="1" connectable="0" parent="uE81RZDB7KeKk8YCKidy-14">
          <mxGeometry x="0.2467" y="-2" relative="1" as="geometry">
            <mxPoint as="offset" />
          </mxGeometry>
        </mxCell>
        <mxCell id="uE81RZDB7KeKk8YCKidy-15" value="" style="endArrow=none;html=1;rounded=0;" edge="1" parent="1" source="uE81RZDB7KeKk8YCKidy-4" target="uE81RZDB7KeKk8YCKidy-8">
          <mxGeometry width="50" height="50" relative="1" as="geometry">
            <mxPoint x="390" y="530" as="sourcePoint" />
            <mxPoint x="440" y="480" as="targetPoint" />
          </mxGeometry>
        </mxCell>
        <mxCell id="uE81RZDB7KeKk8YCKidy-28" value="4" style="edgeLabel;html=1;align=center;verticalAlign=middle;resizable=0;points=[];" vertex="1" connectable="0" parent="uE81RZDB7KeKk8YCKidy-15">
          <mxGeometry x="0.0763" y="-1" relative="1" as="geometry">
            <mxPoint as="offset" />
          </mxGeometry>
        </mxCell>
        <mxCell id="uE81RZDB7KeKk8YCKidy-16" value="" style="endArrow=none;html=1;rounded=0;" edge="1" parent="1" source="uE81RZDB7KeKk8YCKidy-4" target="uE81RZDB7KeKk8YCKidy-2">
          <mxGeometry width="50" height="50" relative="1" as="geometry">
            <mxPoint x="390" y="530" as="sourcePoint" />
            <mxPoint x="440" y="480" as="targetPoint" />
          </mxGeometry>
        </mxCell>
        <mxCell id="uE81RZDB7KeKk8YCKidy-27" value="8" style="edgeLabel;html=1;align=center;verticalAlign=middle;resizable=0;points=[];" vertex="1" connectable="0" parent="uE81RZDB7KeKk8YCKidy-16">
          <mxGeometry x="0.095" relative="1" as="geometry">
            <mxPoint as="offset" />
          </mxGeometry>
        </mxCell>
        <mxCell id="uE81RZDB7KeKk8YCKidy-17" value="" style="endArrow=none;html=1;rounded=0;" edge="1" parent="1" source="uE81RZDB7KeKk8YCKidy-2" target="uE81RZDB7KeKk8YCKidy-10">
          <mxGeometry width="50" height="50" relative="1" as="geometry">
            <mxPoint x="390" y="530" as="sourcePoint" />
            <mxPoint x="440" y="480" as="targetPoint" />
          </mxGeometry>
        </mxCell>
        <mxCell id="uE81RZDB7KeKk8YCKidy-22" value="5" style="edgeLabel;html=1;align=center;verticalAlign=middle;resizable=0;points=[];" vertex="1" connectable="0" parent="uE81RZDB7KeKk8YCKidy-17">
          <mxGeometry x="0.163" y="-2" relative="1" as="geometry">
            <mxPoint as="offset" />
          </mxGeometry>
        </mxCell>
        <mxCell id="uE81RZDB7KeKk8YCKidy-18" value="" style="endArrow=none;html=1;rounded=0;" edge="1" parent="1" source="uE81RZDB7KeKk8YCKidy-11" target="uE81RZDB7KeKk8YCKidy-2">
          <mxGeometry width="50" height="50" relative="1" as="geometry">
            <mxPoint x="390" y="530" as="sourcePoint" />
            <mxPoint x="440" y="480" as="targetPoint" />
          </mxGeometry>
        </mxCell>
        <mxCell id="uE81RZDB7KeKk8YCKidy-21" value="10" style="edgeLabel;html=1;align=center;verticalAlign=middle;resizable=0;points=[];" vertex="1" connectable="0" parent="uE81RZDB7KeKk8YCKidy-18">
          <mxGeometry x="0.4451" y="-1" relative="1" as="geometry">
            <mxPoint x="-11" y="-9" as="offset" />
          </mxGeometry>
        </mxCell>
        <mxCell id="uE81RZDB7KeKk8YCKidy-19" value="" style="endArrow=none;html=1;rounded=0;" edge="1" parent="1" source="uE81RZDB7KeKk8YCKidy-2" target="uE81RZDB7KeKk8YCKidy-9">
          <mxGeometry width="50" height="50" relative="1" as="geometry">
            <mxPoint x="390" y="530" as="sourcePoint" />
            <mxPoint x="440" y="480" as="targetPoint" />
          </mxGeometry>
        </mxCell>
        <mxCell id="uE81RZDB7KeKk8YCKidy-26" value="10" style="edgeLabel;html=1;align=center;verticalAlign=middle;resizable=0;points=[];" vertex="1" connectable="0" parent="uE81RZDB7KeKk8YCKidy-19">
          <mxGeometry x="0.0689" y="1" relative="1" as="geometry">
            <mxPoint as="offset" />
          </mxGeometry>
        </mxCell>
        <mxCell id="uE81RZDB7KeKk8YCKidy-30" value="5" style="text;html=1;align=center;verticalAlign=middle;whiteSpace=wrap;rounded=0;" vertex="1" parent="1">
          <mxGeometry x="460" y="450" width="40" height="20" as="geometry" />
        </mxCell>
        <mxCell id="uE81RZDB7KeKk8YCKidy-31" value="11" style="text;html=1;align=center;verticalAlign=middle;whiteSpace=wrap;rounded=0;" vertex="1" parent="1">
          <mxGeometry x="420" y="565" width="40" height="20" as="geometry" />
        </mxCell>
        <mxCell id="uE81RZDB7KeKk8YCKidy-32" value="10" style="text;html=1;align=center;verticalAlign=middle;whiteSpace=wrap;rounded=0;" vertex="1" parent="1">
          <mxGeometry x="260" y="540" width="40" height="20" as="geometry" />
        </mxCell>
        <mxCell id="uE81RZDB7KeKk8YCKidy-33" value="10" style="text;html=1;align=center;verticalAlign=middle;whiteSpace=wrap;rounded=0;" vertex="1" parent="1">
          <mxGeometry x="270" y="430" width="40" height="20" as="geometry" />
        </mxCell>
        <mxCell id="uE81RZDB7KeKk8YCKidy-34" value="" style="rounded=1;whiteSpace=wrap;html=1;" vertex="1" parent="1">
          <mxGeometry x="570" y="390" width="70" height="180" as="geometry" />
        </mxCell>
        <mxCell id="uE81RZDB7KeKk8YCKidy-35" value="(5, 5)" style="rounded=1;whiteSpace=wrap;html=1;" vertex="1" parent="1">
          <mxGeometry x="570" y="550" width="70" height="20" as="geometry" />
        </mxCell>
        <mxCell id="uE81RZDB7KeKk8YCKidy-37" value="(10,4)" style="rounded=1;whiteSpace=wrap;html=1;" vertex="1" parent="1">
          <mxGeometry x="570" y="530" width="70" height="20" as="geometry" />
        </mxCell>
        <mxCell id="uE81RZDB7KeKk8YCKidy-38" value="(10,6)" style="rounded=1;whiteSpace=wrap;html=1;" vertex="1" parent="1">
          <mxGeometry x="570" y="510" width="70" height="20" as="geometry" />
        </mxCell>
        <mxCell id="uE81RZDB7KeKk8YCKidy-39" value="(11,2)" style="rounded=1;whiteSpace=wrap;html=1;" vertex="1" parent="1">
          <mxGeometry x="570" y="490" width="70" height="20" as="geometry" />
        </mxCell>
        <mxCell id="uE81RZDB7KeKk8YCKidy-42" value="&amp;nbsp;Priority Queue" style="text;html=1;align=center;verticalAlign=middle;whiteSpace=wrap;rounded=0;" vertex="1" parent="1">
          <mxGeometry x="570" y="360" width="70" height="20" as="geometry" />
        </mxCell>
        <mxCell id="uE81RZDB7KeKk8YCKidy-43" value="" style="endArrow=classic;html=1;rounded=0;exitX=-0.041;exitY=0.945;exitDx=0;exitDy=0;exitPerimeter=0;entryX=0.75;entryY=0.875;entryDx=0;entryDy=0;entryPerimeter=0;" edge="1" parent="1" source="uE81RZDB7KeKk8YCKidy-34" target="uE81RZDB7KeKk8YCKidy-29">
          <mxGeometry width="50" height="50" relative="1" as="geometry">
            <mxPoint x="400" y="460" as="sourcePoint" />
            <mxPoint x="450" y="410" as="targetPoint" />
          </mxGeometry>
        </mxCell>
        <mxCell id="uE81RZDB7KeKk8YCKidy-44" value="" style="endArrow=none;html=1;rounded=0;" edge="1" parent="1">
          <mxGeometry width="50" height="50" relative="1" as="geometry">
            <mxPoint x="280" y="680" as="sourcePoint" />
            <mxPoint x="580" y="680" as="targetPoint" />
          </mxGeometry>
        </mxCell>
        <mxCell id="uE81RZDB7KeKk8YCKidy-45" value="" style="endArrow=none;html=1;rounded=0;" edge="1" parent="1">
          <mxGeometry width="50" height="50" relative="1" as="geometry">
            <mxPoint x="280" y="690" as="sourcePoint" />
            <mxPoint x="280" y="670" as="targetPoint" />
          </mxGeometry>
        </mxCell>
        <mxCell id="uE81RZDB7KeKk8YCKidy-46" value="" style="endArrow=none;html=1;rounded=0;" edge="1" parent="1">
          <mxGeometry width="50" height="50" relative="1" as="geometry">
            <mxPoint x="309.6" y="690" as="sourcePoint" />
            <mxPoint x="309.6" y="670" as="targetPoint" />
          </mxGeometry>
        </mxCell>
        <mxCell id="uE81RZDB7KeKk8YCKidy-48" value="" style="endArrow=none;html=1;rounded=0;" edge="1" parent="1">
          <mxGeometry width="50" height="50" relative="1" as="geometry">
            <mxPoint x="340" y="690" as="sourcePoint" />
            <mxPoint x="340" y="670" as="targetPoint" />
          </mxGeometry>
        </mxCell>
        <mxCell id="uE81RZDB7KeKk8YCKidy-49" value="" style="endArrow=none;html=1;rounded=0;" edge="1" parent="1">
          <mxGeometry width="50" height="50" relative="1" as="geometry">
            <mxPoint x="370" y="690" as="sourcePoint" />
            <mxPoint x="370" y="670" as="targetPoint" />
          </mxGeometry>
        </mxCell>
        <mxCell id="uE81RZDB7KeKk8YCKidy-50" value="" style="endArrow=none;html=1;rounded=0;" edge="1" parent="1">
          <mxGeometry width="50" height="50" relative="1" as="geometry">
            <mxPoint x="399.6" y="690" as="sourcePoint" />
            <mxPoint x="399.6" y="670" as="targetPoint" />
          </mxGeometry>
        </mxCell>
        <mxCell id="uE81RZDB7KeKk8YCKidy-51" value="" style="endArrow=none;html=1;rounded=0;" edge="1" parent="1">
          <mxGeometry width="50" height="50" relative="1" as="geometry">
            <mxPoint x="430" y="690" as="sourcePoint" />
            <mxPoint x="430" y="670" as="targetPoint" />
          </mxGeometry>
        </mxCell>
        <mxCell id="uE81RZDB7KeKk8YCKidy-52" value="" style="endArrow=none;html=1;rounded=0;" edge="1" parent="1">
          <mxGeometry width="50" height="50" relative="1" as="geometry">
            <mxPoint x="460" y="690" as="sourcePoint" />
            <mxPoint x="460" y="670" as="targetPoint" />
          </mxGeometry>
        </mxCell>
        <mxCell id="uE81RZDB7KeKk8YCKidy-53" value="" style="endArrow=none;html=1;rounded=0;" edge="1" parent="1">
          <mxGeometry width="50" height="50" relative="1" as="geometry">
            <mxPoint x="489.6" y="690" as="sourcePoint" />
            <mxPoint x="489.6" y="670" as="targetPoint" />
          </mxGeometry>
        </mxCell>
        <mxCell id="uE81RZDB7KeKk8YCKidy-54" value="" style="endArrow=none;html=1;rounded=0;" edge="1" parent="1">
          <mxGeometry width="50" height="50" relative="1" as="geometry">
            <mxPoint x="520" y="690" as="sourcePoint" />
            <mxPoint x="520" y="670" as="targetPoint" />
          </mxGeometry>
        </mxCell>
        <mxCell id="uE81RZDB7KeKk8YCKidy-55" value="" style="endArrow=none;html=1;rounded=0;" edge="1" parent="1">
          <mxGeometry width="50" height="50" relative="1" as="geometry">
            <mxPoint x="550" y="690" as="sourcePoint" />
            <mxPoint x="550" y="670" as="targetPoint" />
          </mxGeometry>
        </mxCell>
        <mxCell id="uE81RZDB7KeKk8YCKidy-56" value="" style="endArrow=none;html=1;rounded=0;" edge="1" parent="1">
          <mxGeometry width="50" height="50" relative="1" as="geometry">
            <mxPoint x="580.4" y="690" as="sourcePoint" />
            <mxPoint x="580.4" y="670" as="targetPoint" />
          </mxGeometry>
        </mxCell>
        <mxCell id="uE81RZDB7KeKk8YCKidy-57" value="0" style="text;html=1;align=center;verticalAlign=middle;whiteSpace=wrap;rounded=0;" vertex="1" parent="1">
          <mxGeometry x="270" y="690" width="20" height="20" as="geometry" />
        </mxCell>
        <mxCell id="uE81RZDB7KeKk8YCKidy-58" value="1" style="text;html=1;align=center;verticalAlign=middle;whiteSpace=wrap;rounded=0;" vertex="1" parent="1">
          <mxGeometry x="300" y="690" width="20" height="20" as="geometry" />
        </mxCell>
        <mxCell id="uE81RZDB7KeKk8YCKidy-59" value="2" style="text;html=1;align=center;verticalAlign=middle;whiteSpace=wrap;rounded=0;" vertex="1" parent="1">
          <mxGeometry x="330" y="690" width="20" height="20" as="geometry" />
        </mxCell>
        <mxCell id="uE81RZDB7KeKk8YCKidy-60" value="3" style="text;html=1;align=center;verticalAlign=middle;whiteSpace=wrap;rounded=0;" vertex="1" parent="1">
          <mxGeometry x="360" y="690" width="20" height="20" as="geometry" />
        </mxCell>
        <mxCell id="uE81RZDB7KeKk8YCKidy-61" value="4" style="text;html=1;align=center;verticalAlign=middle;whiteSpace=wrap;rounded=0;" vertex="1" parent="1">
          <mxGeometry x="390" y="690" width="20" height="20" as="geometry" />
        </mxCell>
        <mxCell id="uE81RZDB7KeKk8YCKidy-62" value="5" style="text;html=1;align=center;verticalAlign=middle;whiteSpace=wrap;rounded=0;" vertex="1" parent="1">
          <mxGeometry x="420" y="690" width="20" height="20" as="geometry" />
        </mxCell>
        <mxCell id="uE81RZDB7KeKk8YCKidy-63" value="6" style="text;html=1;align=center;verticalAlign=middle;whiteSpace=wrap;rounded=0;" vertex="1" parent="1">
          <mxGeometry x="450" y="690" width="20" height="20" as="geometry" />
        </mxCell>
        <mxCell id="uE81RZDB7KeKk8YCKidy-64" value="7" style="text;html=1;align=center;verticalAlign=middle;whiteSpace=wrap;rounded=0;" vertex="1" parent="1">
          <mxGeometry x="480" y="690" width="20" height="20" as="geometry" />
        </mxCell>
        <mxCell id="uE81RZDB7KeKk8YCKidy-65" value="8" style="text;html=1;align=center;verticalAlign=middle;whiteSpace=wrap;rounded=0;" vertex="1" parent="1">
          <mxGeometry x="510" y="690" width="20" height="20" as="geometry" />
        </mxCell>
        <mxCell id="uE81RZDB7KeKk8YCKidy-66" value="9" style="text;html=1;align=center;verticalAlign=middle;whiteSpace=wrap;rounded=0;" vertex="1" parent="1">
          <mxGeometry x="540" y="690" width="20" height="20" as="geometry" />
        </mxCell>
        <mxCell id="uE81RZDB7KeKk8YCKidy-67" value="10" style="text;html=1;align=center;verticalAlign=middle;whiteSpace=wrap;rounded=0;" vertex="1" parent="1">
          <mxGeometry x="570" y="690" width="20" height="20" as="geometry" />
        </mxCell>
        <mxCell id="uE81RZDB7KeKk8YCKidy-68" value="" style="curved=1;endArrow=classic;html=1;rounded=0;" edge="1" parent="1">
          <mxGeometry width="50" height="50" relative="1" as="geometry">
            <mxPoint x="280" y="680" as="sourcePoint" />
            <mxPoint x="430" y="680" as="targetPoint" />
            <Array as="points">
              <mxPoint x="310" y="660" />
              <mxPoint x="400" y="660" />
            </Array>
          </mxGeometry>
        </mxCell>
        <mxCell id="uE81RZDB7KeKk8YCKidy-70" value="5" style="text;html=1;align=center;verticalAlign=middle;whiteSpace=wrap;rounded=0;" vertex="1" parent="1">
          <mxGeometry x="344" y="640" width="20" height="20" as="geometry" />
        </mxCell>
        <mxCell id="uE81RZDB7KeKk8YCKidy-71" value="" style="curved=1;endArrow=classic;html=1;rounded=0;strokeColor=#FF3333;" edge="1" parent="1">
          <mxGeometry width="50" height="50" relative="1" as="geometry">
            <mxPoint x="430" y="680" as="sourcePoint" />
            <mxPoint x="550" y="680" as="targetPoint" />
            <Array as="points">
              <mxPoint x="460" y="660" />
              <mxPoint x="520" y="660" />
            </Array>
          </mxGeometry>
        </mxCell>
        <mxCell id="uE81RZDB7KeKk8YCKidy-72" value="8" style="text;html=1;align=center;verticalAlign=middle;whiteSpace=wrap;rounded=0;" vertex="1" parent="1">
          <mxGeometry x="480" y="640" width="20" height="20" as="geometry" />
        </mxCell>
        <mxCell id="uE81RZDB7KeKk8YCKidy-73" value="" style="curved=1;endArrow=classic;html=1;rounded=0;" edge="1" parent="1">
          <mxGeometry width="50" height="50" relative="1" as="geometry">
            <mxPoint x="550" y="680" as="sourcePoint" />
            <mxPoint x="580" y="680" as="targetPoint" />
            <Array as="points">
              <mxPoint x="550" y="660" />
              <mxPoint x="580" y="660" />
            </Array>
          </mxGeometry>
        </mxCell>
        <mxCell id="uE81RZDB7KeKk8YCKidy-74" value="1" style="text;html=1;align=center;verticalAlign=middle;whiteSpace=wrap;rounded=0;" vertex="1" parent="1">
          <mxGeometry x="555" y="640" width="20" height="20" as="geometry" />
        </mxCell>
      </root>
    </mxGraphModel>
  </diagram>
</mxfile>
